<svg width="50" height="50" viewBox="0 0 50 50" fill="none" xmlns="http://www.w3.org/2000/svg">
<circle cx="25" cy="25" r="25" fill="#07163F" fill-opacity="0.4"/>
<path d="M35.1661 32.2516C35.1661 32.6266 35.0828 33.012 34.9057 33.387C34.7286 33.762 34.4994 34.1162 34.1973 34.4495C33.6869 35.012 33.1244 35.4183 32.489 35.6787C31.864 35.9391 31.1869 36.0745 30.4578 36.0745C29.3953 36.0745 28.2598 35.8245 27.0619 35.3141C25.864 34.8037 24.6661 34.1162 23.4786 33.2516C22.2807 32.3766 21.1453 31.4079 20.0619 30.335C18.989 29.2516 18.0203 28.1162 17.1557 26.9287C16.3015 25.7412 15.614 24.5537 15.114 23.3766C14.614 22.1891 14.364 21.0537 14.364 19.9704C14.364 19.262 14.489 18.585 14.739 17.96C14.989 17.3245 15.3848 16.7412 15.9369 16.2204C16.6036 15.5641 17.3328 15.2412 18.1036 15.2412C18.3953 15.2412 18.6869 15.3037 18.9473 15.4287C19.2182 15.5537 19.4578 15.7412 19.6453 16.012L22.0619 19.4183C22.2494 19.6787 22.3848 19.9183 22.4786 20.1475C22.5723 20.3662 22.6244 20.585 22.6244 20.7829C22.6244 21.0329 22.5515 21.2829 22.4057 21.5225C22.2703 21.762 22.0723 22.012 21.8223 22.262L21.0307 23.085C20.9161 23.1995 20.864 23.335 20.864 23.5016C20.864 23.585 20.8744 23.6579 20.8953 23.7412C20.9265 23.8245 20.9578 23.887 20.9786 23.9495C21.1661 24.2933 21.489 24.7412 21.9473 25.2829C22.4161 25.8245 22.9161 26.3766 23.4578 26.9287C24.0203 27.4808 24.5619 27.9912 25.114 28.46C25.6557 28.9183 26.1036 29.2308 26.4578 29.4183C26.5098 29.4391 26.5723 29.4704 26.6453 29.5016C26.7286 29.5329 26.8119 29.5433 26.9057 29.5433C27.0828 29.5433 27.2182 29.4808 27.3328 29.3662L28.1244 28.585C28.3848 28.3245 28.6348 28.1266 28.8744 28.0016C29.114 27.8558 29.3536 27.7829 29.614 27.7829C29.8119 27.7829 30.0203 27.8245 30.2494 27.9183C30.4786 28.012 30.7182 28.1475 30.9786 28.3245L34.4265 30.7725C34.6973 30.96 34.8848 31.1787 34.9994 31.4391C35.1036 31.6995 35.1661 31.96 35.1661 32.2516Z" stroke="#07163F" stroke-width="2" stroke-miterlimit="10"/>
</svg>
