<svg width="51" height="50" viewBox="0 0 51 50" fill="none" xmlns="http://www.w3.org/2000/svg">
<circle cx="25.5" cy="25" r="25" fill="#07163F" fill-opacity="0.4"/>
<path d="M25.4999 36.6668C31.9432 36.6668 37.1666 31.4435 37.1666 25.0002C37.1666 18.5568 31.9432 13.3335 25.4999 13.3335C19.0566 13.3335 13.8333 18.5568 13.8333 25.0002C13.8333 31.4435 19.0566 36.6668 25.4999 36.6668Z" stroke="#07163F" stroke-width="1.5" stroke-linecap="round" stroke-linejoin="round"/>
<path d="M20.8333 14.5H22C19.725 21.3133 19.725 28.6867 22 35.5H20.8333" stroke="#07163F" stroke-width="1.5" stroke-linecap="round" stroke-linejoin="round"/>
<path d="M29 14.5C31.275 21.3133 31.275 28.6867 29 35.5" stroke="#07163F" stroke-width="1.5" stroke-linecap="round" stroke-linejoin="round"/>
<path d="M15 29.6667V28.5C21.8133 30.775 29.1867 30.775 36 28.5V29.6667" stroke="#07163F" stroke-width="1.5" stroke-linecap="round" stroke-linejoin="round"/>
<path d="M15 21.5002C21.8133 19.2252 29.1867 19.2252 36 21.5002" stroke="#07163F" stroke-width="1.5" stroke-linecap="round" stroke-linejoin="round"/>
</svg>
