<svg width="34" height="34" viewBox="0 0 34 34" fill="none" xmlns="http://www.w3.org/2000/svg">
<path d="M25.5568 19.1957C24.9618 19.7765 24.6217 20.6123 24.7067 21.5048C24.8343 23.0348 26.2367 24.154 27.7667 24.154H30.4584V25.8398C30.4584 28.7723 28.0642 31.1665 25.1317 31.1665H8.86842C5.93592 31.1665 3.54175 28.7723 3.54175 25.8398V16.3057C3.54175 13.3732 5.93592 10.979 8.86842 10.979H25.1317C28.0642 10.979 30.4584 13.3732 30.4584 16.3057V18.3457H27.5967C26.8034 18.3457 26.0809 18.6573 25.5568 19.1957Z" stroke="#333333" stroke-width="2" stroke-linecap="round" stroke-linejoin="round"/>
<path d="M3.54175 17.5808V11.1068C3.54175 9.42092 4.57591 7.91919 6.14842 7.32419L17.3967 3.07419C19.1534 2.40836 21.0376 3.71173 21.0376 5.5959V10.9792" stroke="#333333" stroke-width="2" stroke-linecap="round" stroke-linejoin="round"/>
<path d="M31.9584 19.7911V22.7095C31.9584 23.4887 31.3351 24.1262 30.5417 24.1545H27.7651C26.2351 24.1545 24.8326 23.0353 24.7051 21.5053C24.6201 20.6128 24.9601 19.777 25.5551 19.1962C26.0792 18.6578 26.8017 18.3462 27.5951 18.3462H30.5417C31.3351 18.3745 31.9584 19.012 31.9584 19.7911Z" stroke="#333333" stroke-width="2" stroke-linecap="round" stroke-linejoin="round"/>
<path d="M9.91675 17H19.8334" stroke="#333333" stroke-width="2" stroke-linecap="round" stroke-linejoin="round"/>
</svg>
