<svg width="34" height="34" viewBox="0 0 34 34" fill="none" xmlns="http://www.w3.org/2000/svg">
<path d="M25.5565 19.1957C24.9615 19.7765 24.6215 20.6123 24.7065 21.5048C24.834 23.0348 26.2365 24.154 27.7665 24.154H30.4582V25.8398C30.4582 28.7723 28.064 31.1665 25.1315 31.1665H8.86817C5.93567 31.1665 3.5415 28.7723 3.5415 25.8398V16.3057C3.5415 13.3732 5.93567 10.979 8.86817 10.979H25.1315C28.064 10.979 30.4582 13.3732 30.4582 16.3057V18.3457H27.5965C26.8032 18.3457 26.0807 18.6573 25.5565 19.1957Z" stroke="#07163F" stroke-width="2" stroke-linecap="round" stroke-linejoin="round"/>
<path d="M3.5415 17.5808V11.1068C3.5415 9.42092 4.57567 7.91919 6.14817 7.32419L17.3965 3.07419C19.1532 2.40836 21.0373 3.71173 21.0373 5.5959V10.9792" stroke="#07163F" stroke-width="2" stroke-linecap="round" stroke-linejoin="round"/>
<path d="M31.9582 19.7911V22.7095C31.9582 23.4887 31.3348 24.1262 30.5415 24.1545H27.7648C26.2348 24.1545 24.8323 23.0353 24.7048 21.5053C24.6198 20.6128 24.9598 19.777 25.5548 19.1962C26.079 18.6578 26.8015 18.3462 27.5948 18.3462H30.5415C31.3348 18.3745 31.9582 19.012 31.9582 19.7911Z" stroke="#07163F" stroke-width="2" stroke-linecap="round" stroke-linejoin="round"/>
<path d="M9.9165 17H19.8332" stroke="#07163F" stroke-width="2" stroke-linecap="round" stroke-linejoin="round"/>
</svg>
