<svg width="51" height="50" viewBox="0 0 51 50" fill="none" xmlns="http://www.w3.org/2000/svg">
<circle cx="25.5" cy="25" r="25" fill="#07163F" fill-opacity="0.4"/>
<path d="M37.6666 29.7402V17.6702C37.6666 16.4702 36.5233 15.5802 35.1349 15.6802H35.0649C32.6149 15.8602 28.8933 16.9302 26.8166 18.0502L26.6183 18.1602C26.2799 18.3402 25.7199 18.3402 25.3816 18.1602L25.0899 18.0102C23.0133 16.9002 19.3033 15.8402 16.8533 15.6702C15.4649 15.5702 14.3333 16.4702 14.3333 17.6602V29.7402C14.3333 30.7002 15.2433 31.6002 16.3633 31.7202L16.7016 31.7602C19.2333 32.0502 23.1416 33.1502 25.3816 34.2002L25.4283 34.2202C25.7433 34.3702 26.2449 34.3702 26.5483 34.2202C28.7883 33.1602 32.7083 32.0502 35.2516 31.7602L35.6366 31.7202C36.7566 31.6002 37.6666 30.7002 37.6666 29.7402Z" stroke="#07163F" stroke-width="1.5" stroke-linecap="round" stroke-linejoin="round"/>
<path d="M26 18.4902V33.4902" stroke="#07163F" stroke-width="1.5" stroke-linecap="round" stroke-linejoin="round"/>
<path d="M21.0417 21.4902H18.4167" stroke="#07163F" stroke-width="1.5" stroke-linecap="round" stroke-linejoin="round"/>
<path d="M21.9167 24.4902H18.4167" stroke="#07163F" stroke-width="1.5" stroke-linecap="round" stroke-linejoin="round"/>
</svg>
