<svg width="40" height="40" viewBox="0 0 40 40" fill="none" xmlns="http://www.w3.org/2000/svg">
<circle cx="20" cy="20" r="20" fill="#07163F"/>
<path d="M20.4618 12.3643C17.5196 12.3643 15.1285 14.7554 15.1285 17.6976V20.2665C15.1285 20.8087 14.8973 21.6354 14.6218 22.0976L13.5996 23.7954C12.9685 24.8443 13.404 26.0087 14.5596 26.3998C18.3907 27.6798 22.524 27.6798 26.3551 26.3998C27.4307 26.0443 27.9018 24.7731 27.3151 23.7954L26.2929 22.0976C26.0262 21.6354 25.7951 20.8087 25.7951 20.2665V17.6976C25.7951 14.7643 23.3951 12.3643 20.4618 12.3643Z" stroke="white" stroke-width="1.33333" stroke-miterlimit="10" stroke-linecap="round"/>
<path d="M22.1063 12.622C21.8307 12.542 21.5463 12.4797 21.2529 12.4442C20.3996 12.3375 19.5818 12.3997 18.8174 12.622C19.0752 11.9642 19.7152 11.502 20.4618 11.502C21.2085 11.502 21.8485 11.9642 22.1063 12.622Z" stroke="white" stroke-width="1.33333" stroke-miterlimit="10" stroke-linecap="round" stroke-linejoin="round"/>
<path d="M23.1285 26.7188C23.1285 28.1854 21.9285 29.3854 20.4618 29.3854C19.7329 29.3854 19.0574 29.0832 18.5774 28.6032C18.0974 28.1232 17.7952 27.4476 17.7952 26.7188" stroke="white" stroke-width="1.33333" stroke-miterlimit="10"/>
</svg>
