<svg width="34" height="34" viewBox="0 0 34 34" fill="none" xmlns="http://www.w3.org/2000/svg">
<path d="M17.2266 15.3993C17.085 15.3852 16.915 15.3852 16.7591 15.3993C13.3875 15.286 10.71 12.5235 10.71 9.1235C10.71 5.65266 13.515 2.8335 17 2.8335C20.4708 2.8335 23.29 5.65266 23.29 9.1235C23.2758 12.5235 20.5983 15.286 17.2266 15.3993Z" stroke="#333333" stroke-width="2" stroke-linecap="round" stroke-linejoin="round"/>
<path d="M10.1433 20.6265C6.71494 22.9215 6.71494 26.6615 10.1433 28.9423C14.0391 31.549 20.4283 31.549 24.3241 28.9423C27.7524 26.6473 27.7524 22.9073 24.3241 20.6265C20.4424 18.034 14.0533 18.034 10.1433 20.6265Z" stroke="#333333" stroke-width="2" stroke-linecap="round" stroke-linejoin="round"/>
</svg>
