<svg width="51" height="50" viewBox="0 0 51 50" fill="none" xmlns="http://www.w3.org/2000/svg">
<circle cx="25.5" cy="25" r="25" fill="#07163F" fill-opacity="0.4"/>
<path d="M32.0001 20.16C31.9401 20.15 31.8701 20.15 31.8101 20.16C30.4301 20.11 29.3301 18.98 29.3301 17.58C29.3301 16.15 30.4801 15 31.9101 15C33.3401 15 34.4901 16.16 34.4901 17.58C34.4801 18.98 33.3801 20.11 32.0001 20.16Z" stroke="#07163F" stroke-width="1.5" stroke-linecap="round" stroke-linejoin="round"/>
<path d="M30.9702 27.4402C32.3402 27.6702 33.8502 27.4302 34.9102 26.7202C36.3202 25.7802 36.3202 24.2402 34.9102 23.3002C33.8402 22.5902 32.3102 22.3502 30.9402 22.5902" stroke="#07163F" stroke-width="1.5" stroke-linecap="round" stroke-linejoin="round"/>
<path d="M19.97 20.16C20.03 20.15 20.1 20.15 20.16 20.16C21.54 20.11 22.64 18.98 22.64 17.58C22.64 16.15 21.49 15 20.06 15C18.63 15 17.48 16.16 17.48 17.58C17.49 18.98 18.59 20.11 19.97 20.16Z" stroke="#07163F" stroke-width="1.5" stroke-linecap="round" stroke-linejoin="round"/>
<path d="M20.9999 27.4402C19.6299 27.6702 18.1199 27.4302 17.0599 26.7202C15.6499 25.7802 15.6499 24.2402 17.0599 23.3002C18.1299 22.5902 19.6599 22.3502 21.0299 22.5902" stroke="#07163F" stroke-width="1.5" stroke-linecap="round" stroke-linejoin="round"/>
<path d="M26.0001 27.6302C25.9401 27.6202 25.8701 27.6202 25.8101 27.6302C24.4301 27.5802 23.3301 26.4502 23.3301 25.0502C23.3301 23.6202 24.4801 22.4702 25.9101 22.4702C27.3401 22.4702 28.4901 23.6302 28.4901 25.0502C28.4801 26.4502 27.3801 27.5902 26.0001 27.6302Z" stroke="#07163F" stroke-width="1.5" stroke-linecap="round" stroke-linejoin="round"/>
<path d="M23.09 30.7804C21.68 31.7204 21.68 33.2603 23.09 34.2003C24.69 35.2703 27.31 35.2703 28.91 34.2003C30.32 33.2603 30.32 31.7204 28.91 30.7804C27.32 29.7204 24.69 29.7204 23.09 30.7804Z" stroke="#07163F" stroke-width="1.5" stroke-linecap="round" stroke-linejoin="round"/>
</svg>
