<svg width="70" height="70" viewBox="0 0 70 70" fill="none" xmlns="http://www.w3.org/2000/svg">
<circle cx="35" cy="35" r="35" fill="url(#paint0_linear_202_11111)"/>
<path d="M27.8366 32.7718V29.3651C27.8366 28.2335 28.7233 27.2185 29.9833 27.2185C31.1149 27.2185 32.1299 28.1051 32.1299 29.3651V32.6435C32.1299 34.9185 30.2399 36.8085 27.9649 36.8085C25.6899 36.8085 23.7999 34.9068 23.7999 32.6435V25.4568C23.6716 18.9001 28.8516 13.5918 35.4083 13.5918C41.9649 13.5918 47.1333 18.9001 47.1333 25.3285V32.5151C47.1333 34.7901 45.2433 36.6801 42.9683 36.6801C40.6933 36.6801 38.8033 34.7901 38.8033 32.5151V29.2368C38.8033 28.1051 39.6899 27.0901 40.9499 27.0901C42.0816 27.0901 43.0966 27.9768 43.0966 29.2368V32.7718" stroke="white" stroke-width="2.5" stroke-linecap="round" stroke-linejoin="round"/>
<path d="M30.5933 53.7771C30.6773 53.7771 30.7496 53.8098 30.8103 53.8751L31.3983 54.5191C30.9876 55.0044 30.4859 55.3801 29.8933 55.6461C29.3053 55.9121 28.5959 56.0451 27.7653 56.0451C27.0373 56.0451 26.3769 55.9191 25.7843 55.6671C25.1963 55.4151 24.6923 55.0628 24.2723 54.6101C23.8569 54.1574 23.5349 53.6161 23.3063 52.9861C23.0776 52.3561 22.9633 51.6631 22.9633 50.9071C22.9633 50.1511 23.0823 49.4581 23.3203 48.8281C23.5629 48.1981 23.9013 47.6568 24.3353 47.2041C24.7693 46.7514 25.2873 46.3991 25.8893 46.1471C26.4959 45.8951 27.1656 45.7691 27.8983 45.7691C28.6123 45.7691 29.2469 45.8858 29.8023 46.1191C30.3576 46.3524 30.8406 46.6628 31.2513 47.0501L30.7613 47.7431C30.7286 47.7944 30.6866 47.8364 30.6353 47.8691C30.5886 47.9018 30.5256 47.9181 30.4463 47.9181C30.3576 47.9181 30.2526 47.8738 30.1313 47.7851C30.0146 47.6964 29.8583 47.5984 29.6623 47.4911C29.4709 47.3791 29.2329 47.2788 28.9483 47.1901C28.6636 47.1014 28.3089 47.0571 27.8843 47.0571C27.3849 47.0571 26.9276 47.1458 26.5123 47.3231C26.0969 47.4958 25.7376 47.7478 25.4343 48.0791C25.1356 48.4058 24.9023 48.8094 24.7343 49.2901C24.5709 49.7661 24.4893 50.3051 24.4893 50.9071C24.4893 51.5184 24.5756 52.0621 24.7483 52.5381C24.9209 53.0141 25.1589 53.4178 25.4623 53.7491C25.7656 54.0804 26.1226 54.3324 26.5333 54.5051C26.9439 54.6778 27.3873 54.7641 27.8633 54.7641C28.1526 54.7641 28.4116 54.7478 28.6403 54.7151C28.8736 54.6778 29.0859 54.6241 29.2773 54.5541C29.4733 54.4841 29.6576 54.3954 29.8303 54.2881C30.0029 54.1761 30.1733 54.0431 30.3413 53.8891C30.3786 53.8564 30.4183 53.8308 30.4603 53.8121C30.5023 53.7888 30.5466 53.7771 30.5933 53.7771ZM38.0975 47.5191C38.0508 47.5984 38.0018 47.6568 37.9505 47.6941C37.8991 47.7314 37.8338 47.7501 37.7545 47.7501C37.6705 47.7501 37.5748 47.7128 37.4675 47.6381C37.3601 47.5588 37.2248 47.4724 37.0615 47.3791C36.9028 47.2811 36.7115 47.1948 36.4875 47.1201C36.2635 47.0408 35.9951 47.0011 35.6825 47.0011C35.3885 47.0011 35.1295 47.0408 34.9055 47.1201C34.6861 47.1948 34.5018 47.2998 34.3525 47.4351C34.2031 47.5658 34.0888 47.7221 34.0095 47.9041C33.9348 48.0814 33.8975 48.2751 33.8975 48.4851C33.8975 48.7558 33.9651 48.9798 34.1005 49.1571C34.2405 49.3344 34.4225 49.4861 34.6465 49.6121C34.8705 49.7381 35.1248 49.8478 35.4095 49.9411C35.6941 50.0344 35.9858 50.1324 36.2845 50.2351C36.5831 50.3331 36.8748 50.4474 37.1595 50.5781C37.4441 50.7088 37.6985 50.8744 37.9225 51.0751C38.1465 51.2711 38.3261 51.5138 38.4615 51.8031C38.6015 52.0878 38.6715 52.4378 38.6715 52.8531C38.6715 53.2964 38.5945 53.7118 38.4405 54.0991C38.2911 54.4864 38.0718 54.8248 37.7825 55.1141C37.4931 55.4034 37.1361 55.6321 36.7115 55.8001C36.2915 55.9634 35.8131 56.0451 35.2765 56.0451C34.9545 56.0451 34.6418 56.0124 34.3385 55.9471C34.0351 55.8864 33.7481 55.8001 33.4775 55.6881C33.2068 55.5714 32.9525 55.4338 32.7145 55.2751C32.4811 55.1118 32.2711 54.9298 32.0845 54.7291L32.5115 54.0151C32.5535 53.9591 32.6025 53.9124 32.6585 53.8751C32.7191 53.8378 32.7868 53.8191 32.8615 53.8191C32.9595 53.8191 33.0715 53.8704 33.1975 53.9731C33.3281 54.0758 33.4868 54.1901 33.6735 54.3161C33.8648 54.4374 34.0911 54.5494 34.3525 54.6521C34.6185 54.7548 34.9405 54.8061 35.3185 54.8061C35.6265 54.8061 35.9018 54.7664 36.1445 54.6871C36.3871 54.6031 36.5901 54.4864 36.7535 54.3371C36.9215 54.1831 37.0498 53.9988 37.1385 53.7841C37.2271 53.5694 37.2715 53.3314 37.2715 53.0701C37.2715 52.7761 37.2038 52.5358 37.0685 52.3491C36.9331 52.1624 36.7535 52.0061 36.5295 51.8801C36.3055 51.7541 36.0511 51.6468 35.7665 51.5581C35.4818 51.4694 35.1901 51.3784 34.8915 51.2851C34.5928 51.1871 34.3011 51.0751 34.0165 50.9491C33.7318 50.8231 33.4775 50.6598 33.2535 50.4591C33.0295 50.2538 32.8498 49.9994 32.7145 49.6961C32.5791 49.3881 32.5115 49.0101 32.5115 48.5621C32.5115 48.2028 32.5815 47.8551 32.7215 47.5191C32.8615 47.1831 33.0645 46.8868 33.3305 46.6301C33.6011 46.3688 33.9325 46.1611 34.3245 46.0071C34.7165 45.8484 35.1645 45.7691 35.6685 45.7691C36.2331 45.7691 36.7511 45.8601 37.2225 46.0421C37.6985 46.2194 38.1115 46.4761 38.4615 46.8121L38.0975 47.5191ZM43.3607 50.7251C43.7434 50.7251 44.0794 50.6784 44.3687 50.5851C44.6627 50.4918 44.9077 50.3611 45.1037 50.1931C45.2997 50.0204 45.4467 49.8174 45.5447 49.5841C45.6427 49.3461 45.6917 49.0848 45.6917 48.8001C45.6917 48.2214 45.5004 47.7851 45.1177 47.4911C44.7397 47.1971 44.1704 47.0501 43.4097 47.0501H42.0027V50.7251H43.3607ZM48.0507 55.9331H46.7207C46.4547 55.9331 46.261 55.8281 46.1397 55.6181L43.6547 52.1321C43.5754 52.0154 43.489 51.9338 43.3957 51.8871C43.3024 51.8358 43.1624 51.8101 42.9757 51.8101H42.0027V55.9331H40.5117V45.8811H43.4097C44.0584 45.8811 44.616 45.9488 45.0827 46.0841C45.554 46.2148 45.9414 46.4038 46.2447 46.6511C46.5527 46.8938 46.779 47.1878 46.9237 47.5331C47.073 47.8784 47.1477 48.2658 47.1477 48.6951C47.1477 49.0451 47.094 49.3741 46.9867 49.6821C46.8794 49.9901 46.7207 50.2678 46.5107 50.5151C46.3054 50.7578 46.0534 50.9678 45.7547 51.1451C45.456 51.3224 45.1177 51.4578 44.7397 51.5511C44.9264 51.6631 45.0874 51.8194 45.2227 52.0201L48.0507 55.9331Z" fill="white"/>
<defs>
<linearGradient id="paint0_linear_202_11111" x1="457.159" y1="12.5245" x2="-5.80977" y2="14.5568" gradientUnits="userSpaceOnUse">
<stop stop-color="#19D0FC"/>
<stop offset="1" stop-color="#07163F"/>
</linearGradient>
</defs>
</svg>
